# xmcd
#
# Track frame offsets:
#	150
#	16797
#	37024
#
# Disc length: 728 seconds
#
# Revision: 0
# Processed by: cddbd v1.5.2PL0 Copyright (c) Steve Scherf et al.
# Submitted via: audiograbber 1.83.01
#
DISCID=1902d603
DTITLE=Nino de Angelo - Lass uns fliegen
DYEAR=2003
DGENRE=Schlager
TTITLE0=Nino de Angelo - Lass uns fliegen
TTITLE1=Nino de Angelo - Atemlos
TTITLE2=Nino de Angelo - Wo sind die Engel
EXTD=
EXTT0=
EXTT1=
EXTT2=
PLAYORDER=
